<svg width="409" height="546" viewBox="0 0 409 546" fill="none" xmlns="http://www.w3.org/2000/svg">
<path d="M81.8 500.121C81.8 512.414 71.8304 522.379 59.5322 522.379C47.2341 522.379 37.2644 512.414 37.2644 500.121C37.2644 487.829 47.2341 477.864 59.5322 477.864C71.8304 477.864 81.8 487.829 81.8 500.121Z" fill="#ffffff"/>
<path d="M0 148.537C0 188.455 15.753 224.695 41.3841 251.385C32.4035 266.977 27.2667 285.06 27.2667 304.343C27.2667 336.427 41.4879 365.19 63.9733 384.68C61.3848 392.715 59.9867 401.285 59.9867 410.181C59.9867 456.091 97.2202 493.308 143.15 493.308C148.842 493.308 154.401 492.736 159.771 491.647C182.192 524.461 219.914 546 262.669 546C331.438 546 387.187 490.276 387.187 421.537C387.187 396.371 379.714 372.949 366.865 353.367C376.097 343.336 381.733 329.948 381.733 315.245C381.733 301.582 376.867 289.056 368.772 279.303C393.559 255.647 409 222.291 409 185.331C409 113.582 350.81 55.4176 279.029 55.4176C274.284 55.4176 269.599 55.6718 264.986 56.1672C237.762 21.9425 195.746 0 148.603 0C66.532 0 0 66.5025 0 148.537Z" fill="#ffffff"/>
</svg>
