<svg width="1140" height="997" viewBox="0 0 1140 997" fill="none" xmlns="http://www.w3.org/2000/svg">
<path d="M768.5 0C700.153 0 636.865 21.6644 585.13 58.5007C557.311 46.5926 526.676 40 494.5 40C442.665 40 394.826 57.1103 356.323 85.991C324.775 71.8592 289.805 64 253 64C113.272 64 0 177.272 0 317C0 372.66 17.9739 424.122 48.4341 465.898C17.9266 509.015 0 561.664 0 618.5C0 764.579 118.421 883 264.5 883C285.321 883 305.581 880.594 325.015 876.045C371.54 937.956 445.594 978 529 978C605.689 978 674.472 944.146 721.218 890.568C731.416 914.905 755.461 932 783.5 932C812.989 932 838.06 913.091 847.252 886.736C873.258 898.47 902.116 905 932.5 905C1047.1 905 1140 812.099 1140 697.5C1140 614.026 1090.71 542.065 1019.65 509.133C1060.63 455.775 1085 388.983 1085 316.5C1085 141.702 943.298 0 768.5 0Z" fill="#ffffff"/>
<path d="M177 940.5C177 971.704 151.704 997 120.5 997C89.2959 997 64 971.704 64 940.5C64 909.296 89.2959 884 120.5 884C151.704 884 177 909.296 177 940.5Z" fill="#ffffff"/>
</svg>
